<svg width="50" height="50" viewBox="0 0 50 50" fill="none" xmlns="http://www.w3.org/2000/svg">
<g clip-path="url(#clip0_2777_1216)">
<path d="M45.9316 18.2553C46.471 18.2553 46.9082 17.8181 46.9082 17.2787C46.9082 16.7394 46.471 16.3022 45.9316 16.3022C45.3923 16.3022 44.9551 16.7394 44.9551 17.2787C44.9551 17.8181 45.3923 18.2553 45.9316 18.2553Z" fill="#F98731"/>
<path d="M49.0735 20.6068C48.9056 20.2797 48.5726 20.0756 48.2044 20.0756C48.0481 20.0756 47.8987 20.1127 47.7591 20.184C47.5276 20.3031 47.3558 20.5053 47.2757 20.7533C47.1956 21.0014 47.2171 21.266 47.3362 21.4984C47.6018 22.016 48.0481 23.0795 48.0472 24.3813C48.0472 24.519 48.0413 24.6586 48.0325 24.7963C47.9754 25.5457 47.8723 26.0412 47.7478 26.4291L35.4935 25.1211L35.7074 22.0373C35.7262 21.7672 35.6319 21.5028 35.4473 21.3049C35.2626 21.1069 35.004 20.9959 34.7333 20.9959H32.0794L33.0365 10.8721C33.1365 10.899 33.2406 10.911 33.3454 10.9048L35.0231 10.81C35.363 10.7914 35.6726 10.5922 35.8317 10.2914C35.9089 10.144 36.5974 8.74259 36.8405 5.10294C36.9089 4.05216 37.0476 3.37931 37.153 2.9965C37.3737 3.41251 37.6511 4.059 37.7312 4.79142C37.8015 5.41446 37.861 5.82169 37.9245 6.11173C37.9577 6.25626 38.0495 6.5713 38.2253 6.7797C38.2721 6.83517 38.3542 6.92111 38.4841 6.99533C38.6257 7.07638 38.8005 7.12882 38.9645 7.12882H38.9704H38.9763C39.0476 7.12882 39.1218 7.11349 39.194 7.09689L39.3015 7.08673C39.3737 7.24298 39.4733 7.50499 39.5358 7.87413C39.6433 8.50597 39.8005 8.97784 40.029 9.36251C40.2165 9.6838 40.4636 9.91193 40.6374 10.0477C40.6589 10.0858 41.8942 12.7094 42.28 13.4076C42.4519 13.7182 42.78 13.9115 43.1354 13.9115C43.2995 13.9115 43.4626 13.8686 43.6081 13.7885C44.0788 13.5277 44.2497 12.932 43.989 12.4613C43.6433 11.8383 43.2741 11.0414 42.9489 10.3383C42.9489 10.3383 42.5993 9.58634 42.4685 9.33048C42.4089 9.21427 42.3444 9.09025 42.2692 8.96915C42.2302 8.90665 42.194 8.85196 42.1452 8.78946C42.1394 8.78165 42.0183 8.63517 41.8815 8.53654C41.8815 8.53654 41.7673 8.45157 41.7058 8.35978C41.6501 8.26798 41.5446 8.04044 41.4606 7.54435C41.363 6.9672 41.1823 6.43302 40.9392 5.99943C40.8376 5.81779 40.7331 5.66642 40.6218 5.53751C40.5632 5.47013 40.5075 5.41251 40.4274 5.34611C40.3815 5.30997 40.2272 5.21622 40.2136 5.20841C40.027 5.09025 39.7448 5.10196 39.736 5.10196C39.7145 4.93986 39.6931 4.7631 39.6726 4.5756C39.5778 3.73087 39.3054 2.88224 38.863 2.05314C38.5104 1.39493 38.1608 0.957727 38.028 0.799426C37.8171 0.547473 37.4704 0.390442 37.1364 0.390442C36.778 0.390442 36.4382 0.534778 36.1433 0.810168C35.7956 1.14415 35.5436 1.59718 35.3278 2.28077C35.1081 2.98976 34.9655 3.87052 34.8913 4.97306C34.7751 6.72794 34.5505 7.8715 34.3825 8.52189C34.3493 8.65372 34.3132 8.7797 34.278 8.89581L33.6149 8.93292C33.1159 8.52374 32.1042 7.69562 30.9285 6.73859C30.3689 6.2796 29.7879 5.92316 29.2029 5.67804C29.2703 5.57062 29.325 5.45734 29.3592 5.34796C29.4021 5.21515 29.4275 5.07941 29.4363 4.93292C29.5945 4.87238 30.1424 4.69269 30.1502 4.68878C30.2049 4.66632 30.2723 4.638 30.3846 4.56183C30.4539 4.51105 30.5359 4.44659 30.6277 4.32159C30.7205 4.19757 30.8182 3.9798 30.8162 3.73859C30.8152 3.67999 30.7908 3.46222 30.7723 3.34601C30.74 3.138 30.7068 2.95343 30.6746 2.7962C30.6531 2.69659 30.576 2.41827 30.5428 2.34015C30.5252 2.30206 30.449 2.16925 30.4432 2.16144C30.3982 2.09503 30.3367 2.00421 30.1678 1.88605C29.9988 1.7796 29.9031 1.75812 29.8328 1.74249C29.8191 1.73956 29.8064 1.73663 29.7947 1.73273C29.6893 1.71417 29.4031 1.70538 29.3152 1.70538C29.1687 1.70441 28.9861 1.70343 28.7332 1.69464C28.2146 1.67609 27.6609 1.63527 27.0428 1.56495C26.4334 1.49562 25.9314 1.46456 25.4646 1.46456H25.4539C24.1609 1.46456 23.0008 1.72902 21.4345 2.18898C20.5927 2.43312 19.9218 2.85099 19.495 3.39884C18.994 4.03361 18.9228 4.70685 18.9247 5.05167C18.9247 5.2382 18.9433 5.42247 18.9794 5.60118C18.9325 5.57482 18.8954 5.53859 18.8202 5.42238C18.6415 5.10988 18.3651 4.85275 18.0604 4.69845C17.7821 4.55489 17.4647 4.4921 17.1181 4.4921H17.1132C16.3671 4.4921 15.7069 4.76183 15.0683 5.02267C14.5702 5.23751 14.1845 5.56036 13.8417 5.88263C13.4062 6.29865 12.954 6.82042 12.4608 7.48253C12.0976 7.97081 11.8622 8.33566 11.8603 8.33868C11.7382 8.52911 11.6855 8.75695 11.7118 8.98155L11.7519 9.32599C11.7079 9.34064 11.6649 9.35509 11.6249 9.36974C11.3593 9.46837 11.0478 9.60304 10.7431 9.85206C10.5653 10.0005 10.4276 10.1616 10.3222 10.3452C10.1903 10.5737 10.119 10.8423 10.12 11.1029C10.12 11.1254 10.1132 11.2133 10.0927 11.266C10.0058 11.516 9.68155 11.974 9.29092 12.309C8.86905 12.683 8.36514 12.9428 7.94229 13.0063C7.66494 13.0512 7.44229 13.1117 7.23916 13.1967C7.04678 13.2768 6.87002 13.3871 6.72647 13.5151C6.49209 13.724 6.371 13.9486 6.30655 14.0688C6.29873 14.0824 6.2919 14.0951 6.28604 14.1059C6.24209 14.1879 6.22744 14.2104 6.21963 14.2192C6.21768 14.2201 6.21572 14.2221 6.21377 14.225C6.20205 14.2387 6.1708 14.2729 6.00088 14.349C5.85635 14.4115 5.51162 14.5307 4.82705 14.6361C2.98623 14.9174 1.95596 15.6293 1.41504 16.1772C0.980473 16.6147 0.760746 17.0346 0.654301 17.308C0.552738 17.4516 0.458012 17.6108 0.374027 17.7826C0.204105 18.1303 0.000980522 18.6947 3.95942e-06 19.4057C-0.000972603 20.0609 0.178715 20.7494 0.519535 21.3959C0.701176 21.7377 0.762699 21.9633 0.783207 22.0688C0.528324 22.1713 0.35723 22.3774 0.261527 22.6352C0.147074 22.9429 0.184086 23.2799 0.398734 23.5416C0.425883 23.5747 1.02823 24.2836 1.37686 24.7289C1.54776 24.9457 1.81905 25.3715 1.83077 25.393C1.84639 25.6313 1.96768 25.9438 1.97452 25.9613C2.09463 26.2397 2.25137 26.5004 2.44864 26.8061C2.85391 27.4281 3.45625 28.2367 4.24033 29.2113C4.62119 29.6723 4.89258 30.4272 4.88379 31.0063C4.88379 31.0619 4.88174 31.1156 4.87783 31.1664C4.86807 31.2748 4.85293 31.3109 4.8461 31.3256C4.83926 31.3412 4.82803 31.3588 4.67178 31.5307C4.58975 31.6244 4.48526 31.7543 4.39737 31.933C4.30362 32.1215 4.24502 32.3539 4.23721 32.5727C4.23623 32.6039 4.23526 32.6313 4.23526 32.6586C4.23428 32.8842 4.2792 33.2162 4.50088 33.5131C4.63369 33.6938 4.83975 33.85 5.05069 33.9311C5.2919 34.0229 5.46768 34.0336 5.59561 34.0424C5.61221 34.0434 5.62783 34.0443 5.64248 34.0453C5.67276 34.0463 5.75381 34.0502 5.75381 34.0502C5.76065 34.06 5.87783 34.225 5.87783 34.225C5.90127 34.2563 6.00576 34.3686 6.01553 34.3783C6.07412 34.434 6.16299 34.5211 6.37686 34.6041C7.04287 34.8385 7.69375 34.9608 8.29922 34.9608C8.90664 34.9608 9.50869 34.8404 10.1288 34.6002C10.6405 34.4 11.0878 34.1592 11.5194 33.9268C11.7685 33.794 12.0038 33.6662 12.244 33.551C12.8397 33.2649 13.5204 32.991 14.4677 32.9295C15.4003 32.8699 16.0233 32.7613 16.5497 32.569C16.9296 32.4303 17.2743 32.2222 17.5478 31.9673C17.7938 31.7339 17.9589 31.5191 18.1054 31.3296C18.1884 31.2212 18.2675 31.1196 18.3534 31.023C18.5878 30.7554 18.8905 30.4621 19.5194 30.0793C20.3623 29.5731 21.2174 29.3251 22.1973 29.2991C22.2551 29.2976 22.4921 29.2976 22.5482 29.2991C23.5495 29.3258 24.5399 29.5847 25.4646 29.8704C25.5612 29.8919 25.8103 30.0487 26.07 30.3857C26.4011 30.7987 26.7731 31.4914 27.0671 32.2404C27.1999 32.5744 27.2946 32.8548 27.3513 33.0326C27.3571 33.0512 27.362 33.0683 27.3679 33.085C27.3786 33.1621 27.3952 33.237 27.4187 33.3113C27.4323 33.3553 27.4636 33.443 27.4636 33.443C27.4704 33.4615 27.5681 33.6528 27.571 33.6577C27.5935 33.69 27.6228 33.7349 27.6931 33.8081C27.7302 33.8443 27.7858 33.8908 27.8903 33.9543C28.0456 34.0442 28.2116 34.0819 28.3923 34.0819C28.5456 34.0819 28.7204 34.0461 28.8532 33.9719C29.0935 33.8381 29.2009 33.6712 29.2614 33.555C29.3308 33.4085 29.3435 33.3285 29.3532 33.2689C29.3542 33.2591 29.3649 33.1474 29.3649 33.1191C29.364 33.037 29.3532 32.9681 29.3532 32.9622C29.3405 32.889 29.319 32.8041 29.3161 32.7952C29.3405 32.7005 29.3942 32.5423 29.4714 32.3812C29.5251 32.264 29.5905 32.138 29.6667 32.0042C29.8415 32.472 30.0505 32.9476 30.2731 33.3802C30.4392 33.7005 30.5856 33.9476 30.7351 34.1605C30.8044 34.2571 31.1571 34.7105 31.4157 34.7903C31.4333 34.8372 31.7478 35.805 31.8435 36.0911C32.0212 36.6253 32.3825 37.1087 32.8903 37.4886C33.6159 38.0286 34.446 38.2855 35.0886 38.4495C35.8767 38.6458 36.6218 38.7357 37.114 38.7864C37.4401 38.8196 37.7907 38.8362 38.1569 38.8362C38.7517 38.8362 39.3581 38.7923 39.9099 38.7083C40.1852 38.6673 40.4274 38.6185 40.6481 38.5618C40.8171 38.5179 41.0153 38.4683 41.2185 38.3765C41.2536 38.3736 42.2321 38.3786 42.2321 38.3786C42.6247 38.3786 43.069 38.3643 43.5671 38.1602C43.778 38.0713 44.0759 37.8966 44.2995 37.5812C44.4929 37.3107 44.6022 36.9499 44.5993 36.5915C44.5993 36.5319 44.6928 35.8919 44.9076 35.431C45.185 34.8109 45.6626 33.9808 46.2329 33.1526C46.4673 32.8118 46.7086 32.4739 46.939 32.1761C47.1685 31.8792 47.3447 31.6712 47.4277 31.5833C47.5732 31.429 47.8712 31.1702 47.8878 31.1566C47.9806 31.0775 48.076 30.9954 48.1834 30.889C48.4109 30.6663 48.6002 30.3734 48.7008 30.0862C48.8102 29.7816 48.8628 29.4456 48.8716 28.9954C48.8784 28.8021 48.9048 28.6995 48.9634 28.5433C48.9985 28.4466 49.3608 27.7015 49.4916 27.3616C49.7553 26.6683 49.9154 25.8743 49.9809 24.9339C49.9935 24.7493 50.0004 24.5628 50.0004 24.3812C49.9983 22.7562 49.4954 21.4319 49.0735 20.6068ZM18.5106 28.4007C17.8983 28.7689 17.4042 29.1644 16.997 29.6087C16.8075 29.8167 16.4696 30.2513 16.4364 30.2923C16.2274 30.5433 16.1815 30.5941 15.9569 30.7025C15.786 30.7796 15.3495 30.9193 14.3456 30.9798C13.6278 31.0228 12.9394 31.1702 12.2401 31.428C11.6532 31.6458 9.79873 32.6321 9.42569 32.7747C9.01358 32.9329 8.67666 33.0003 8.29678 33.0013C7.9794 33.0013 7.6503 32.9495 7.29092 32.8441C7.22549 32.7571 7.12198 32.6282 6.9667 32.4944C6.84658 32.39 6.7128 32.305 6.57119 32.2415C6.57608 32.2327 6.77832 31.9151 6.82412 31.3245C6.83213 31.2209 6.83682 31.1136 6.83682 31.0062C6.83291 30.471 6.73721 29.9368 6.55362 29.4183C6.36807 28.8968 6.10147 28.4144 5.76065 27.9857C5.48037 27.638 4.94033 26.9593 4.47744 26.3109C4.23526 25.9739 3.80752 25.2777 3.7792 25.2161C3.76553 24.9476 3.7001 24.7982 3.6376 24.6536C3.63076 24.637 3.3417 24.1185 3.13955 23.8401C2.97061 23.6087 2.76651 23.3509 2.53311 23.0726L2.53409 23.0706C2.67373 22.8138 2.74991 22.4964 2.74795 22.178C2.74502 21.6722 2.58584 21.1351 2.24893 20.4876C2.04873 20.1048 1.95498 19.7601 1.95401 19.4056C1.95401 19.136 2.0126 18.8782 2.12881 18.639C2.17471 18.5452 2.61905 17.7005 2.93448 17.43C3.43448 17.0071 4.17178 16.7161 5.12588 16.5667C5.94229 16.4388 6.50772 16.2816 6.95889 16.056C7.27822 15.8987 7.5585 15.678 7.74991 15.4329C7.87295 15.2776 8.0253 14.9944 8.03213 14.9837C8.03604 14.9827 8.14151 14.9525 8.2499 14.9349C8.75967 14.8499 9.25869 14.6663 9.73428 14.389C10.1425 14.1507 10.5331 13.8441 10.8964 13.4769C11.2304 13.1351 11.5038 12.7747 11.7089 12.4056C11.8778 12.0931 12.037 11.7435 12.0692 11.304C12.1708 11.2503 12.3476 11.1741 12.5155 11.1341C12.6532 11.095 12.9481 11.0403 12.9521 11.0394C13.2079 11.0052 13.4354 10.8743 13.5937 10.6702C13.7528 10.4671 13.8231 10.2132 13.7929 9.95734L13.6933 9.11163C13.8729 8.85284 14.1542 8.4632 14.4784 8.06866C14.7479 7.74054 15.0106 7.45538 15.2401 7.24249C15.4794 7.01593 15.7196 6.85187 15.8241 6.81281C16.2536 6.62687 16.6124 6.51622 16.8511 6.46603C16.9559 6.44396 17.1347 6.43458 17.1435 6.43556C17.4052 6.89034 17.8316 7.25411 18.2986 7.44122L19.7002 27.8186C19.2916 27.976 18.8945 28.1678 18.5106 28.4007ZM20.2625 7.52667C20.4169 7.45753 20.5625 7.36554 20.6952 7.24864C20.8456 7.11388 20.9628 6.96534 21.0536 6.79249C21.162 6.58546 21.2167 6.36671 21.2177 6.14113C21.2226 5.85695 21.1093 5.53859 20.9208 5.31105C20.9149 5.29347 20.8749 5.17335 20.8778 5.05226C20.8808 4.91945 20.9003 4.77394 21.0331 4.60206C21.2099 4.37745 21.5302 4.19581 21.9843 4.06105C23.6571 3.57277 24.5028 3.41554 25.4646 3.41359C25.8553 3.41359 26.2859 3.44288 26.8221 3.50343C27.1883 3.54542 27.5437 3.57863 27.8787 3.60402C27.7928 3.69191 27.7476 3.78859 27.6919 3.89113C27.5122 4.21339 27.5394 4.52101 27.5394 4.63624V4.68898C27.2464 4.93507 26.6514 5.77882 26.6514 5.77882C26.4561 6.0962 26.4564 6.50441 26.6576 6.81788C26.8354 7.09523 27.149 7.24874 27.4791 7.24874C27.5084 7.24874 27.5877 7.22648 27.5877 7.22648C27.9354 7.32413 28.6717 7.40695 29.695 8.23507C30.2619 8.6964 30.7802 9.12843 31.2058 9.47638L30.1175 20.9959H21.1892L20.2625 7.52667ZM32.9514 33.5492C32.9049 33.4877 32.8523 33.4259 32.7907 33.3665C32.6716 33.2493 32.5251 33.1496 32.3581 33.0705C32.3269 33.0285 32.2214 32.8801 32.1159 32.6838C31.8991 32.2951 31.656 31.7561 31.4802 31.2766C31.3903 31.0315 31.3433 30.7971 31.2935 30.5998C31.2417 30.4035 31.2502 30.2463 31.2502 30.2053V30.2033C31.2502 30.0363 31.2017 29.8303 31.0346 29.5549C30.9398 29.4045 30.7667 29.2697 30.6095 29.1867C30.4601 29.1047 30.2736 29.0583 30.0783 29.0583C29.883 29.0603 29.7242 29.1115 29.5982 29.1662C29.3912 29.2629 29.2766 29.3615 29.1389 29.4817C28.9465 29.6555 28.7671 29.8606 28.5503 30.1467C28.4897 30.2268 28.4317 30.3098 28.3731 30.3947C28.0968 29.8606 27.8145 29.4231 27.5098 29.0568C27.1895 28.6789 26.7328 28.2227 26.0365 28.0019C24.934 27.6659 23.735 27.3434 22.363 27.3434C22.1177 27.3434 21.8666 27.3489 21.627 27.3716L21.3238 22.9488H33.6868L32.9514 33.5492ZM46.848 29.4534L46.8451 29.4583C46.8353 29.4749 46.5883 29.6976 46.5883 29.6976C46.4379 29.8255 45.4887 30.8421 45.1439 31.305C44.7934 31.7767 44.1195 32.723 43.5512 33.7493C43.2807 34.2386 43.0958 34.6693 42.9444 35.0657C42.7979 35.4612 42.6757 35.8958 42.6757 36.3909V36.3987C42.578 36.4085 41.558 36.4084 41.4184 36.4084C41.2846 36.4084 41.1381 36.4109 40.975 36.4305C40.7982 36.4539 40.6332 36.4988 40.4164 36.6033C40.4164 36.6033 40.2953 36.6609 40.1596 36.695C39.7582 36.8005 38.9789 36.9139 38.1684 36.9139C37.8695 36.9139 37.5736 36.8849 37.3119 36.8585C36.6625 36.7941 35.7299 36.6535 34.9751 36.3889C34.8867 36.3584 34.8014 36.3221 34.7192 36.2883L35.3583 27.073L46.997 28.3142C46.9491 28.5276 46.8549 29.4437 46.848 29.4534Z" fill="#F98731"/>
<path d="M42.1432 41.7476C41.6337 41.8196 41.1247 42.0337 40.5857 42.2603C40.0424 42.4887 39.4278 42.7498 39.0179 42.7363C38.1705 42.7132 36.8264 41.6302 36.3081 41.1092C35.9287 40.7266 35.3109 40.7236 34.9277 41.1027C34.7181 41.3102 34.6221 41.589 34.6402 41.8617C34.5521 42.3698 34.2614 44.6065 35.4618 46.9121C36.3133 48.5478 37.1292 49.3655 38.1071 49.5637C38.2608 49.5948 38.4119 49.6093 38.5603 49.6093C39.5528 49.6093 40.4273 48.9631 41.183 48.3381C42.432 47.3051 45.209 44.6785 44.0244 42.6035C43.803 42.2157 43.2642 41.5886 42.1432 41.7476ZM39.9383 46.8331C39.6719 47.0534 38.8617 47.7235 38.495 47.6495C38.3446 47.6191 37.9168 47.3983 37.1942 46.0103C36.785 45.2243 36.6054 44.4416 36.5364 43.7898C37.2515 44.2532 38.1191 44.6655 38.9646 44.6887C39.795 44.7116 40.6171 44.3656 41.3427 44.0607C41.6562 43.9288 42.1011 43.7418 42.3568 43.6891C42.3742 44.1288 41.7539 45.3316 39.9383 46.8331Z" fill="#F98731"/>
</g>
<defs>
<clipPath id="clip0_2777_1216">
<rect width="50" height="50" fill="white"/>
</clipPath>
</defs>
</svg>
