<svg width="50" height="50" viewBox="0 0 50 50" fill="none" xmlns="http://www.w3.org/2000/svg">
<g clip-path="url(#clip0_2736:51)">
<path d="M26.4674 0C23.2358 0 20.5103 2.72548 20.5103 5.95702C20.5103 9.18856 23.2358 11.914 26.4674 11.914C29.6989 11.914 32.3267 9.18856 32.3267 5.95702C32.3267 2.72548 29.6989 0 26.4674 0Z" fill="#F98731"/>
<path d="M32.9705 11.9141C31.3606 13.6991 29.0548 14.8437 26.4674 14.8437C23.8799 14.8437 21.4764 13.6991 19.8666 11.9141C18.4611 13.4726 17.5807 15.5143 17.5807 17.7734V19.2383C17.5807 20.0479 18.2358 20.7031 19.0455 20.7031H33.7915C34.6012 20.7031 35.2564 20.0479 35.2564 19.2383V17.7734C35.2564 15.5143 34.3759 13.4726 32.9705 11.9141Z" fill="#F98731"/>
<path d="M14.1549 44.9613L6.68992 29.995C5.96912 28.5498 4.21483 27.9604 2.76786 28.6773L0.816791 29.6438C0.0903281 30.0041 -0.205277 30.887 0.15732 31.6122L8.94637 49.1903C9.30779 49.9152 10.187 50.2037 10.9076 49.8483L12.8336 48.8941C14.2862 48.1746 14.8783 46.412 14.1549 44.9613Z" fill="#F98731"/>
<path d="M48.802 24.1895C47.6007 23.3106 45.9308 23.4864 44.9348 24.5703L36.927 34.4141C36.3704 35 35.3157 35.3516 34.7591 35.3516H27.9328C27.1124 35.3516 26.468 34.7071 26.468 33.8867C26.468 33.0663 27.1124 32.4219 27.9328 32.4219C29.8947 32.4219 32.0668 32.4219 33.7922 32.4219C35.4035 32.4219 36.7218 31.1035 36.7218 29.4922C36.7218 27.8809 35.4035 26.5625 33.7922 26.5625C26.9127 26.5625 33.4748 26.5625 26.1164 26.5625C25.3863 26.5625 25.0223 26.0995 24.4465 25.5956C22.18 23.5561 18.7874 22.5735 15.3528 23.3696C13.4458 23.8115 12.1598 24.582 10.8555 25.615L10.812 25.5797L8.69328 27.4444L17.0198 44.1406H19.4854H33.7922C36.5461 44.1406 39.1829 42.8223 40.8235 40.625L49.4171 28.3203C50.3839 27.0312 50.1203 25.1564 48.802 24.1895Z" fill="#F98731"/>
</g>
<defs>
<clipPath id="clip0_2736:51">
<rect width="50" height="50" fill="white"/>
</clipPath>
</defs>
</svg>
