<svg width="50" height="50" viewBox="0 0 50 50" fill="none" xmlns="http://www.w3.org/2000/svg">
<path d="M49.4929 14.91L32.696 5.68686C32.4035 5.52626 32.0487 5.52626 31.7561 5.68686L25.4397 9.15518C25.2971 9.19485 25.1639 9.26771 25.051 9.36842L14.9592 14.91C14.6468 15.0817 14.4526 15.4098 14.4526 15.766V17.7627H3.18555C2.64615 17.7627 2.20898 18.2002 2.20898 18.7392C2.20898 19.2786 2.64615 19.7158 3.18555 19.7158H14.4526V23.2314H8.85381C8.31441 23.2314 7.87724 23.669 7.87724 24.208C7.87724 24.7474 8.31441 25.1845 8.85381 25.1845H14.4526V30.2627H6.24951C5.71011 30.2627 5.27295 30.7002 5.27295 31.2392C5.27295 31.7786 5.71011 32.2158 6.24951 32.2158H14.4526V34.2128C14.4526 34.5691 14.6468 34.8971 14.9592 35.0688L31.7561 44.292C31.9026 44.3725 32.0643 44.4125 32.2261 44.4125C32.3878 44.4125 32.5496 44.3725 32.696 44.292L49.4929 35.0688C49.8053 34.8971 49.9995 34.5691 49.9995 34.2128V29.8396C49.9995 29.3006 49.5623 28.8631 49.0229 28.8631C48.4836 28.8631 48.0464 29.3006 48.0464 29.8396V33.6349L33.2026 41.7857V25.5672L37.9233 22.9751V27.0888C37.9233 27.4344 38.1057 27.7541 38.4028 27.9296C38.5558 28.02 38.7278 28.0654 38.8999 28.0654C39.0616 28.0654 39.2238 28.0253 39.3706 27.9445L42.9702 25.9635C43.2818 25.7918 43.4756 25.4642 43.4756 25.1079V19.9264L48.0464 17.4167V22.0271C48.0464 22.5665 48.4836 23.0037 49.0229 23.0037C49.5623 23.0037 49.9995 22.5665 49.9995 22.0271V15.766C49.9995 15.4098 49.8053 15.0817 49.4929 14.91ZM31.2495 41.7857L16.4058 33.6349V17.4167L31.2495 25.5672V41.7857ZM32.2261 23.8753L17.4582 15.766L22.0996 13.2174L36.8678 21.3267L32.2261 23.8753ZM38.8968 20.2125L24.1286 12.1032L25.7296 11.2243L40.4975 19.3336L38.8968 20.2125ZM41.5225 24.5307L39.8764 25.4367V21.9028L41.5225 20.9987V24.5307ZM42.5265 18.2193L27.7587 10.11L32.2261 7.65715L46.9939 15.766L42.5265 18.2193Z" fill="#F98731"/>
<path d="M49.0234 24.9573C48.7667 24.9573 48.5146 25.0607 48.333 25.2434C48.1514 25.425 48.0469 25.676 48.0469 25.9338C48.0469 26.1906 48.1514 26.4427 48.333 26.6243C48.5146 26.8059 48.7667 26.9104 49.0234 26.9104C49.2802 26.9104 49.5323 26.8059 49.7139 26.6243C49.8955 26.4427 50 26.1906 50 25.9338C50 25.676 49.8955 25.425 49.7139 25.2434C49.5323 25.0607 49.2802 24.9573 49.0234 24.9573Z" fill="#F98731"/>
<path d="M2.37617 30.2625H0.976562C0.437164 30.2625 0 30.7001 0 31.2391C0 31.7785 0.437164 32.2156 0.976562 32.2156H2.37617C2.91557 32.2156 3.35274 31.7785 3.35274 31.2391C3.35274 30.7001 2.91557 30.2625 2.37617 30.2625Z" fill="#F98731"/>
<path d="M5.92578 24.2078C5.92578 23.951 5.82126 23.6993 5.6393 23.5177C5.45772 23.3357 5.20595 23.2312 4.94922 23.2312C4.69211 23.2312 4.44034 23.3357 4.25876 23.5177C4.07603 23.6993 3.97266 23.951 3.97266 24.2078C3.97266 24.4649 4.07603 24.7166 4.25876 24.8982C4.44034 25.0798 4.69211 25.1843 4.94922 25.1843C5.20595 25.1843 5.45772 25.0802 5.6393 24.8982C5.82126 24.7166 5.92578 24.4649 5.92578 24.2078Z" fill="#F98731"/>
</svg>
