<svg width="50" height="50" viewBox="0 0 50 50" fill="none" xmlns="http://www.w3.org/2000/svg">
<path d="M38.0128 33.076C36.3793 31.4633 34.34 31.4633 32.7169 33.076C31.4787 34.3037 30.2406 35.5314 29.0233 36.78C28.6903 37.1233 28.4094 37.1961 28.0036 36.9672C27.2025 36.5303 26.3493 36.1765 25.5794 35.6979C21.9898 33.4401 18.9829 30.5373 16.3193 27.2702C14.9979 25.6471 13.8222 23.9096 13.0003 21.9535C12.8338 21.5581 12.865 21.298 13.1876 20.9755C14.4257 19.779 15.6326 18.5512 16.85 17.3235C18.5459 15.6172 18.5459 13.6195 16.8396 11.9027C15.8719 10.9247 14.9043 9.9675 13.9367 8.98948C12.9379 7.99065 11.9494 6.98141 10.9402 5.99298C9.30667 4.40108 7.26738 4.40108 5.64428 6.00338C4.39573 7.23111 3.19921 8.49006 1.92986 9.69699C0.754148 10.8103 0.161089 12.1733 0.0362351 13.7652C-0.161451 16.3559 0.473225 18.8009 1.36801 21.1836C3.19921 26.1153 5.98763 30.4956 9.3691 34.5118C13.9367 39.9429 19.3887 44.24 25.7666 47.3406C28.6383 48.7348 31.614 49.8064 34.8498 49.9833C37.0764 50.1082 39.0116 49.5463 40.5619 47.8088C41.6231 46.6227 42.8197 45.5406 43.9433 44.4065C45.6081 42.721 45.6185 40.6817 43.9642 39.0169C41.9873 37.0297 40 35.0528 38.0128 33.076Z" fill="#F98731"/>
<path d="M36.0266 24.7836L39.8658 24.1281C39.2624 20.6009 37.5976 17.4068 35.0693 14.8681C32.3954 12.1941 29.0139 10.5086 25.2891 9.98833L24.748 13.8484C27.6301 14.2542 30.252 15.5547 32.3225 17.6253C34.2786 19.5813 35.5583 22.0576 36.0266 24.7836Z" fill="#F98731"/>
<path d="M42.0299 8.09472C37.5976 3.66239 31.9895 0.863576 25.7988 0L25.2578 3.86008C30.6057 4.60921 35.4542 7.03346 39.2831 10.8519C42.9143 14.4831 45.2969 19.0715 46.1605 24.1177L49.9998 23.4622C48.9905 17.6149 46.2333 12.3086 42.0299 8.09472Z" fill="#F98731"/>
</svg>
