<svg width="50" height="50" viewBox="0 0 50 50" fill="none" xmlns="http://www.w3.org/2000/svg">
<path d="M0.299599 18.5651L48.5858 18.1287L49.9987 49.9994L0 49.6523L0.299599 18.5651Z" fill="white"/>
<path d="M0.298828 18.5717L23.1091 0.571858C23.5777 0.201943 24.1632 0 24.7671 0C25.371 0 25.9565 0.201943 26.4251 0.571858L48.5817 18.132" fill="white"/>
<g opacity="0.3">
<path opacity="0.3" d="M0.298828 18.5717L23.1091 0.571858C23.5777 0.201943 24.1632 0 24.7671 0C25.371 0 25.9565 0.201943 26.4251 0.571858L48.5817 18.132" fill="black"/>
</g>
<path d="M0.000643433 49.6457C-0.0572333 49.5895 3.79668 45.4837 8.61407 40.4755C13.4315 35.4673 17.3875 31.4641 17.4488 31.5103C17.5101 31.5566 13.6528 35.669 8.83196 40.6805C4.01116 45.692 0.0619247 49.7052 0.000643433 49.6457Z" fill="#263238"/>
<path d="M49.999 49.9994C49.9377 50.0556 46.1655 46.0325 41.5728 41.0507C36.9801 36.069 33.3067 31.9599 33.3679 31.907C33.4292 31.8541 37.2014 35.8739 41.7975 40.859C46.3936 45.8441 50.0603 49.9465 49.999 49.9994Z" fill="#263238"/>
<g opacity="0.5">
<path opacity="0.5" d="M48.5851 18.1287L24.379 36.9847L0.298828 18.5651" fill="black"/>
</g>
<path opacity="0.95" d="M2.73785 20.3039L2.62891 5.65941L44.9096 5.09082L45.4169 20.4956L24.377 36.7368L2.73785 20.3039Z" fill="#FAFAFA"/>
<path d="M2.73724 20.3038C2.73724 20.3038 2.87683 20.3997 3.13897 20.5948L4.2897 21.4576L8.66791 24.7633C12.4401 27.6228 17.8601 31.7054 24.4206 36.6904H24.3321L45.3618 20.4361L45.3311 20.5055C45.2324 17.5667 45.1303 14.4824 45.0281 11.3453C44.9566 9.2329 44.8885 7.14367 44.8205 5.09741L44.909 5.18005L2.6317 5.72219L2.68618 5.666C2.7066 10.2709 2.72703 13.9304 2.73724 16.4361C2.73724 17.689 2.73724 18.6543 2.73724 19.3121C2.73724 19.6427 2.73724 19.884 2.73724 20.0559C2.73724 20.2278 2.73724 20.3105 2.73724 20.3105C2.73724 20.3105 2.73724 20.2278 2.73724 20.0625C2.73724 19.8972 2.73724 19.646 2.73724 19.3253C2.73724 18.6642 2.71681 17.7055 2.7032 16.456C2.67936 13.9403 2.64191 10.2808 2.59766 5.666V5.6131H2.65213L44.9056 5.01807H44.9941V5.10401C45.0622 7.15027 45.1303 9.2362 45.2018 11.3486C45.3039 14.4857 45.406 17.57 45.5014 20.5088V20.5518L45.4673 20.5782L24.4138 36.8095L24.3695 36.8458L24.3253 36.8095L8.58961 24.8195L4.24544 21.4939L3.11174 20.6212L2.73724 20.3038Z" fill="#263238"/>
<path d="M38.2433 12.4758C38.2433 12.5221 31.7747 12.6114 23.8013 12.6742C15.8279 12.737 9.35938 12.7502 9.35938 12.7039C9.35938 12.6577 15.8279 12.5684 23.8013 12.5023C31.7747 12.4362 38.2433 12.4263 38.2433 12.4758Z" fill="#263238"/>
<path d="M38.2496 16.6114C38.2496 16.6577 31.7811 16.7502 23.8111 16.813C15.8411 16.8758 9.36914 16.8891 9.36914 16.8395C9.36914 16.7899 15.8377 16.7039 23.8111 16.6411C31.7845 16.5783 38.2496 16.5651 38.2496 16.6114Z" fill="#263238"/>
<path d="M38.2594 21.3783C38.2594 21.4278 31.7908 21.5171 23.8209 21.5799C15.8509 21.6427 9.37891 21.6559 9.37891 21.6064C9.37891 21.5568 15.8475 21.4708 23.8209 21.408C31.7942 21.3452 38.2594 21.332 38.2594 21.3783Z" fill="#263238"/>
<path d="M38.2715 26.1452C38.2715 26.1947 32.1059 26.2807 24.4968 26.3402C16.8877 26.3997 10.7188 26.4129 10.7188 26.3633C10.7188 26.3137 16.8843 26.2278 24.4968 26.1683C32.1093 26.1088 38.2715 26.0989 38.2715 26.1452Z" fill="#263238"/>
<path d="M32.8789 30.3401C32.8236 30.3552 32.7662 30.3619 32.7087 30.36L32.2219 30.3798L30.4379 30.4228L24.5447 30.5286C22.2432 30.5682 20.1563 30.5815 18.6481 30.5815H16.8641H16.3773C16.32 30.5829 16.2628 30.5774 16.207 30.5649C16.2624 30.5499 16.3198 30.5432 16.3773 30.5451L16.8607 30.5253L18.6481 30.4823L24.5413 30.3798C26.8427 30.3368 28.9263 30.3236 30.4345 30.3236H32.2219H32.7087C32.7659 30.3237 32.8229 30.3292 32.8789 30.3401Z" fill="#263238"/>
<path d="M27.4309 34.3731C26.4123 34.4622 25.3891 34.4931 24.3668 34.4657C23.3447 34.497 22.3216 34.4705 21.3027 34.3864C22.3215 34.2993 23.3445 34.2684 24.3668 34.2938C25.3889 34.2645 26.4118 34.2909 27.4309 34.3731Z" fill="#263238"/>
</svg>
