<svg width="50" height="50" viewBox="0 0 50 50" fill="none" xmlns="http://www.w3.org/2000/svg">
<g clip-path="url(#clip0_2777_1452)">
<path d="M42.7389 7.38228C33.0105 -2.41277 17.1829 -2.46829 7.38312 7.26331C-2.41511 16.9933 -2.46587 32.8209 7.26098 42.6191C16.9926 52.4157 32.8201 52.4697 42.6199 42.7397C52.4166 33.0096 52.4689 17.1821 42.7389 7.38228ZM35.8308 6.22274L30.528 11.4891C27.0256 10.0583 23.079 10.044 19.5671 11.451L14.3007 6.14818C20.9645 2.37134 29.1924 2.3983 35.8308 6.22274ZM11.455 30.4352L6.15219 35.6999C2.37217 29.0361 2.40073 20.8083 6.22675 14.1698L11.4947 19.4726C10.0607 22.9735 10.048 26.9216 11.455 30.4352ZM14.1722 43.7787L19.4766 38.5123C22.9775 39.9415 26.9256 39.9574 30.436 38.5488L35.7023 43.8532C29.0401 47.6301 20.8091 47.6031 14.1722 43.7787ZM32.9565 33.0128C28.5389 37.4004 21.3754 37.375 16.9862 32.9573C12.5987 28.5396 12.6241 21.3761 17.0433 16.9886C21.4626 12.601 28.6245 12.6248 33.0121 17.0425C37.4012 21.4602 37.3758 28.6237 32.9565 33.0128ZM38.5084 30.5272C39.9392 27.0247 39.9551 23.0782 38.5465 19.5662L43.8493 14.2999C47.6277 20.9621 47.6007 29.1915 43.7747 35.83L38.5084 30.5272Z" fill="#F98731"/>
</g>
<defs>
<clipPath id="clip0_2777_1452">
<rect width="50" height="50" fill="white"/>
</clipPath>
</defs>
</svg>
